<mxfile host="app.diagrams.net" agent="Mozilla/5.0 (X11; Linux x86_64) AppleWebKit/537.36 (KHTML, like Gecko) Chrome/130.0.0.0 Safari/537.36" version="24.7.17">
  <diagram name="PÃ¡gina-1" id="IIgTtOmfX2RyDvhCvTBE">
    <mxGraphModel dx="2800" dy="3508" grid="1" gridSize="10" guides="1" tooltips="1" connect="1" arrows="1" fold="1" page="1" pageScale="1" pageWidth="827" pageHeight="1169" math="0" shadow="0">
      <root>
        <mxCell id="0" />
        <mxCell id="1" parent="0" />
        <mxCell id="e5OpwMNv2B2QkPRnAw4D-1" value="" style="html=1;overflow=block;blockSpacing=1;whiteSpace=wrap;ellipse;container=1;pointerEvents=0;collapsible=0;recursiveResize=0;fontSize=13;spacing=0;strokeColor=#unset;fillOpacity=0;rounded=1;absoluteArcSize=1;arcSize=9;fillColor=#000000;strokeWidth=NaN;lucidId=Y.~frDhy4yKe;" parent="1" vertex="1">
          <mxGeometry x="1080" y="-67" width="314" height="140" as="geometry" />
        </mxCell>
        <mxCell id="e5OpwMNv2B2QkPRnAw4D-2" value="" style="html=1;overflow=block;blockSpacing=1;whiteSpace=wrap;ellipse;container=1;pointerEvents=0;collapsible=0;recursiveResize=0;fontSize=13;spacing=0;strokeColor=#unset;fillOpacity=0;rounded=1;absoluteArcSize=1;arcSize=9;fillColor=#000000;strokeWidth=NaN;lucidId=Q~~ft_3wy2R-;" parent="1" vertex="1">
          <mxGeometry x="270" y="-23" width="284" height="103" as="geometry" />
        </mxCell>
        <mxCell id="e5OpwMNv2B2QkPRnAw4D-3" value="" style="html=1;overflow=block;blockSpacing=1;whiteSpace=wrap;ellipse;container=1;pointerEvents=0;collapsible=0;recursiveResize=0;fontSize=13;spacing=0;strokeColor=#unset;fillOpacity=0;rounded=1;absoluteArcSize=1;arcSize=9;fillColor=#000000;strokeWidth=NaN;lucidId=Eaag7vFq_rkK;" parent="1" vertex="1">
          <mxGeometry x="240" y="112" width="358" height="141" as="geometry" />
        </mxCell>
        <mxCell id="e5OpwMNv2B2QkPRnAw4D-4" value="" style="html=1;overflow=block;blockSpacing=1;whiteSpace=wrap;ellipse;container=1;pointerEvents=0;collapsible=0;recursiveResize=0;fontSize=13;spacing=0;strokeColor=#unset;fillOpacity=0;rounded=1;absoluteArcSize=1;arcSize=9;fillColor=#000000;strokeWidth=NaN;lucidId=mcageydQGY9z;" parent="1" vertex="1">
          <mxGeometry x="750" y="-68" width="343" height="142" as="geometry" />
        </mxCell>
        <mxCell id="e5OpwMNv2B2QkPRnAw4D-5" value="" style="html=1;overflow=block;blockSpacing=1;whiteSpace=wrap;ellipse;container=1;pointerEvents=0;collapsible=0;recursiveResize=0;fontSize=13;spacing=0;strokeColor=#unset;fillOpacity=0;rounded=1;absoluteArcSize=1;arcSize=9;fillColor=#000000;strokeWidth=NaN;lucidId=ddagG1QzPClm;" parent="1" vertex="1">
          <mxGeometry x="2115" y="154" width="296" height="133" as="geometry" />
        </mxCell>
        <mxCell id="e5OpwMNv2B2QkPRnAw4D-6" value="" style="html=1;overflow=block;blockSpacing=1;whiteSpace=wrap;ellipse;container=1;pointerEvents=0;collapsible=0;recursiveResize=0;fontSize=13;spacing=0;strokeColor=#unset;fillOpacity=0;rounded=1;absoluteArcSize=1;arcSize=9;fillColor=#000000;strokeWidth=NaN;lucidId=NdagpB1rLRM-;" parent="1" vertex="1">
          <mxGeometry x="2385" y="336" width="341" height="143" as="geometry" />
        </mxCell>
        <mxCell id="e5OpwMNv2B2QkPRnAw4D-7" value="" style="html=1;overflow=block;blockSpacing=1;whiteSpace=wrap;ellipse;container=1;pointerEvents=0;collapsible=0;recursiveResize=0;fontSize=13;spacing=0;strokeColor=#unset;fillOpacity=0;rounded=1;absoluteArcSize=1;arcSize=9;fillColor=#000000;strokeWidth=NaN;lucidId=jeagK1TZLon7;" parent="1" vertex="1">
          <mxGeometry x="3090" y="214" width="289" height="143" as="geometry" />
        </mxCell>
        <mxCell id="e5OpwMNv2B2QkPRnAw4D-8" value="" style="html=1;overflow=block;blockSpacing=1;whiteSpace=wrap;ellipse;container=1;pointerEvents=0;collapsible=0;recursiveResize=0;fontSize=13;spacing=0;strokeColor=#unset;fillOpacity=0;rounded=1;absoluteArcSize=1;arcSize=9;fillColor=#000000;strokeWidth=NaN;lucidId=RfagXSF.b_IG;" parent="1" vertex="1">
          <mxGeometry x="3585" y="-373" width="367" height="172" as="geometry" />
        </mxCell>
        <mxCell id="e5OpwMNv2B2QkPRnAw4D-9" value="" style="html=1;overflow=block;blockSpacing=1;whiteSpace=wrap;ellipse;container=1;pointerEvents=0;collapsible=0;recursiveResize=0;fontSize=13;spacing=0;strokeColor=#unset;fillOpacity=0;rounded=1;absoluteArcSize=1;arcSize=9;fillColor=#000000;strokeWidth=NaN;lucidId=-nagajI_LvL3;" parent="1" vertex="1">
          <mxGeometry x="3131" y="-443" width="270" height="122" as="geometry" />
        </mxCell>
        <mxCell id="e5OpwMNv2B2QkPRnAw4D-10" value="" style="html=1;overflow=block;blockSpacing=1;whiteSpace=wrap;ellipse;container=1;pointerEvents=0;collapsible=0;recursiveResize=0;fontSize=13;spacing=0;strokeColor=#unset;fillOpacity=0;rounded=1;absoluteArcSize=1;arcSize=9;fillColor=#000000;strokeWidth=NaN;lucidId=WpagX4FR4gD3;" parent="1" vertex="1">
          <mxGeometry x="3121" y="-608" width="263" height="102" as="geometry" />
        </mxCell>
        <mxCell id="e5OpwMNv2B2QkPRnAw4D-11" value="" style="html=1;overflow=block;blockSpacing=1;whiteSpace=wrap;ellipse;container=1;pointerEvents=0;collapsible=0;recursiveResize=0;fontSize=13;spacing=0;strokeColor=#unset;fillOpacity=0;rounded=1;absoluteArcSize=1;arcSize=9;fillColor=#000000;strokeWidth=NaN;lucidId=PqagYd1Hs4T0;" parent="1" vertex="1">
          <mxGeometry x="2116" y="-615" width="294" height="116" as="geometry" />
        </mxCell>
        <mxCell id="e5OpwMNv2B2QkPRnAw4D-12" value="" style="html=1;overflow=block;blockSpacing=1;whiteSpace=wrap;ellipse;container=1;pointerEvents=0;collapsible=0;recursiveResize=0;fontSize=13;spacing=0;strokeColor=#unset;fillOpacity=0;rounded=1;absoluteArcSize=1;arcSize=9;fillColor=#000000;strokeWidth=NaN;lucidId=uragK32LG8al;" parent="1" vertex="1">
          <mxGeometry x="720" y="-338" width="294" height="133" as="geometry" />
        </mxCell>
        <mxCell id="e5OpwMNv2B2QkPRnAw4D-13" value="" style="html=1;overflow=block;blockSpacing=1;whiteSpace=wrap;ellipse;container=1;pointerEvents=0;collapsible=0;recursiveResize=0;fontSize=13;spacing=0;strokeColor=#unset;fillOpacity=0;rounded=1;absoluteArcSize=1;arcSize=9;fillColor=#000000;strokeWidth=NaN;lucidId=~MagYrt4~OjG;" parent="1" vertex="1">
          <mxGeometry x="4144" y="-1095" width="240" height="109" as="geometry" />
        </mxCell>
        <mxCell id="e5OpwMNv2B2QkPRnAw4D-14" value="" style="html=1;overflow=block;blockSpacing=1;whiteSpace=wrap;ellipse;container=1;pointerEvents=0;collapsible=0;recursiveResize=0;fontSize=13;spacing=0;strokeColor=#unset;fillOpacity=0;rounded=1;absoluteArcSize=1;arcSize=9;fillColor=#000000;strokeWidth=NaN;lucidId=FNagKLXwvpPt;" parent="1" vertex="1">
          <mxGeometry x="4144" y="-891" width="271" height="91" as="geometry" />
        </mxCell>
        <mxCell id="e5OpwMNv2B2QkPRnAw4D-15" value="" style="html=1;overflow=block;blockSpacing=1;whiteSpace=wrap;ellipse;container=1;pointerEvents=0;collapsible=0;recursiveResize=0;fontSize=13;spacing=0;strokeColor=#unset;fillOpacity=0;rounded=1;absoluteArcSize=1;arcSize=9;fillColor=#000000;strokeWidth=NaN;lucidId=ROag3yyd6gWR;" parent="1" vertex="1">
          <mxGeometry x="3705" y="-625" width="240" height="122" as="geometry" />
        </mxCell>
        <mxCell id="e5OpwMNv2B2QkPRnAw4D-16" value="" style="html=1;overflow=block;blockSpacing=1;whiteSpace=wrap;ellipse;container=1;pointerEvents=0;collapsible=0;recursiveResize=0;fontSize=13;spacing=0;strokeColor=#unset;fillOpacity=0;rounded=1;absoluteArcSize=1;arcSize=9;fillColor=#000000;strokeWidth=NaN;lucidId=_PagpBcSsMX9;" parent="1" vertex="1">
          <mxGeometry x="3705" y="-1016" width="272" height="137" as="geometry" />
        </mxCell>
        <mxCell id="e5OpwMNv2B2QkPRnAw4D-17" value="" style="html=1;overflow=block;blockSpacing=1;whiteSpace=wrap;ellipse;container=1;pointerEvents=0;collapsible=0;recursiveResize=0;fontSize=13;spacing=0;strokeColor=#unset;fillOpacity=0;rounded=1;absoluteArcSize=1;arcSize=9;fillColor=#000000;strokeWidth=NaN;lucidId=KSagWHLwqx-Q;" parent="1" vertex="1">
          <mxGeometry x="4099" y="-630" width="296" height="132" as="geometry" />
        </mxCell>
        <mxCell id="e5OpwMNv2B2QkPRnAw4D-18" value="" style="html=1;overflow=block;blockSpacing=1;whiteSpace=wrap;ellipse;container=1;pointerEvents=0;collapsible=0;recursiveResize=0;fontSize=13;spacing=0;strokeColor=#unset;fillOpacity=0;rounded=1;absoluteArcSize=1;arcSize=9;fillColor=#000000;strokeWidth=NaN;lucidId=S.agqyD3YTH9;" parent="1" vertex="1">
          <mxGeometry x="4179" y="-159" width="432" height="250" as="geometry" />
        </mxCell>
        <mxCell id="e5OpwMNv2B2QkPRnAw4D-19" value="" style="html=1;overflow=block;blockSpacing=1;whiteSpace=wrap;ellipse;container=1;pointerEvents=0;collapsible=0;recursiveResize=0;fontSize=13;spacing=0;strokeColor=#unset;fillOpacity=0;rounded=1;absoluteArcSize=1;arcSize=9;fillColor=#000000;strokeWidth=NaN;lucidId=fabg-TmvuDj1;" parent="1" vertex="1">
          <mxGeometry x="3131" y="-232" width="300" height="152" as="geometry" />
        </mxCell>
        <mxCell id="e5OpwMNv2B2QkPRnAw4D-20" style="edgeStyle=orthogonalEdgeStyle;rounded=0;orthogonalLoop=1;jettySize=auto;html=1;exitX=1;exitY=0.5;exitDx=0;exitDy=0;entryX=0;entryY=0.5;entryDx=0;entryDy=0;" parent="1" source="Pc4sicpr5zxXTXYjzxv1-1" target="e5OpwMNv2B2QkPRnAw4D-36" edge="1">
          <mxGeometry relative="1" as="geometry">
            <mxPoint x="2875" y="-261.5" as="sourcePoint" />
          </mxGeometry>
        </mxCell>
        <mxCell id="e5OpwMNv2B2QkPRnAw4D-26" style="edgeStyle=orthogonalEdgeStyle;rounded=0;orthogonalLoop=1;jettySize=auto;html=1;exitX=1;exitY=0.25;exitDx=0;exitDy=0;entryX=0;entryY=0.5;entryDx=0;entryDy=0;" parent="1" target="e5OpwMNv2B2QkPRnAw4D-76" edge="1">
          <mxGeometry relative="1" as="geometry">
            <mxPoint x="2990" y="-292.37" as="sourcePoint" />
            <mxPoint x="3149" y="900.38" as="targetPoint" />
            <Array as="points">
              <mxPoint x="3020" y="-291" />
              <mxPoint x="3020" y="970" />
              <mxPoint x="3131" y="970" />
            </Array>
          </mxGeometry>
        </mxCell>
        <mxCell id="e5OpwMNv2B2QkPRnAw4D-27" style="edgeStyle=orthogonalEdgeStyle;rounded=0;orthogonalLoop=1;jettySize=auto;html=1;entryX=0;entryY=0.5;entryDx=0;entryDy=0;" parent="1" source="Pc4sicpr5zxXTXYjzxv1-1" target="e5OpwMNv2B2QkPRnAw4D-40" edge="1">
          <mxGeometry relative="1" as="geometry">
            <mxPoint x="2875" y="-261.5" as="sourcePoint" />
          </mxGeometry>
        </mxCell>
        <mxCell id="e5OpwMNv2B2QkPRnAw4D-29" value="UsuÃ¡rio seleciona &quot;esqueceu a senha&quot;" style="html=1;overflow=block;blockSpacing=1;whiteSpace=wrap;fontSize=16.7;spacing=0;strokeColor=#282c33;strokeOpacity=100;fillOpacity=100;rounded=1;absoluteArcSize=1;arcSize=9;fillColor=#ffffff;strokeWidth=1.5;lucidId=Gaag.V0q0CBY;" parent="1" vertex="1">
          <mxGeometry x="285" y="171" width="268" height="76" as="geometry" />
        </mxCell>
        <mxCell id="e5OpwMNv2B2QkPRnAw4D-30" value="Visualizar o calendÃ¡rio" style="html=1;overflow=block;blockSpacing=1;whiteSpace=wrap;fontSize=16.7;spacing=0;strokeColor=#282c33;strokeOpacity=100;fillOpacity=100;rounded=1;absoluteArcSize=1;arcSize=9;fillColor=#ffffff;strokeWidth=1.5;lucidId=ncag5nSuH~FQ;" parent="1" vertex="1">
          <mxGeometry x="793" y="-6" width="257" height="73" as="geometry" />
        </mxCell>
        <mxCell id="e5OpwMNv2B2QkPRnAw4D-31" value="Visualizar grade curricular" style="html=1;overflow=block;blockSpacing=1;whiteSpace=wrap;fontSize=16.7;spacing=0;strokeColor=#282c33;strokeOpacity=100;fillOpacity=100;rounded=1;absoluteArcSize=1;arcSize=9;fillColor=#ffffff;strokeWidth=1.5;lucidId=edagFw2vyw.m;" parent="1" vertex="1">
          <mxGeometry x="886" y="251" width="222" height="106" as="geometry" />
        </mxCell>
        <mxCell id="e5OpwMNv2B2QkPRnAw4D-32" value="Visualizar Quadro de HorÃ¡rios" style="html=1;overflow=block;blockSpacing=1;whiteSpace=wrap;fontSize=16.7;spacing=0;strokeColor=#282c33;strokeOpacity=100;fillOpacity=100;rounded=1;absoluteArcSize=1;arcSize=9;fillColor=#ffffff;strokeWidth=1.5;lucidId=OdageunkFL4_;" parent="1" vertex="1">
          <mxGeometry x="3121" y="750" width="256" height="54" as="geometry" />
        </mxCell>
        <mxCell id="e5OpwMNv2B2QkPRnAw4D-33" style="edgeStyle=orthogonalEdgeStyle;rounded=0;orthogonalLoop=1;jettySize=auto;html=1;exitX=1;exitY=0.5;exitDx=0;exitDy=0;entryX=0;entryY=0.5;entryDx=0;entryDy=0;" parent="1" source="e5OpwMNv2B2QkPRnAw4D-35" target="e5OpwMNv2B2QkPRnAw4D-50" edge="1">
          <mxGeometry relative="1" as="geometry" />
        </mxCell>
        <mxCell id="e5OpwMNv2B2QkPRnAw4D-34" style="edgeStyle=orthogonalEdgeStyle;rounded=0;orthogonalLoop=1;jettySize=auto;html=1;exitX=1;exitY=0.5;exitDx=0;exitDy=0;" parent="1" source="e5OpwMNv2B2QkPRnAw4D-35" target="e5OpwMNv2B2QkPRnAw4D-51" edge="1">
          <mxGeometry relative="1" as="geometry" />
        </mxCell>
        <mxCell id="e5OpwMNv2B2QkPRnAw4D-35" value="UsuÃ¡rio faz rematrÃ­cula on-line" style="html=1;overflow=block;blockSpacing=1;whiteSpace=wrap;fontSize=16.7;spacing=0;strokeColor=#282c33;strokeOpacity=100;fillOpacity=100;rounded=1;absoluteArcSize=1;arcSize=9;fillColor=#ffffff;strokeWidth=1.5;lucidId=keagAF9mJs9q;" parent="1" vertex="1">
          <mxGeometry x="3131" y="162" width="217" height="69" as="geometry" />
        </mxCell>
        <mxCell id="e5OpwMNv2B2QkPRnAw4D-36" value="UsuÃ¡rio resolve problema na central de soluÃ§Ãµes" style="html=1;overflow=block;blockSpacing=1;whiteSpace=wrap;fontSize=16.7;spacing=0;strokeColor=#282c33;strokeOpacity=100;fillOpacity=100;rounded=1;absoluteArcSize=1;arcSize=9;fillColor=#ffffff;strokeWidth=1.5;lucidId=aoag3U4Fi8WB;" parent="1" vertex="1">
          <mxGeometry x="3169" y="-422" width="271" height="102" as="geometry" />
        </mxCell>
        <mxCell id="e5OpwMNv2B2QkPRnAw4D-37" style="edgeStyle=orthogonalEdgeStyle;rounded=0;orthogonalLoop=1;jettySize=auto;html=1;exitX=0.5;exitY=0;exitDx=0;exitDy=0;entryX=0;entryY=0.5;entryDx=0;entryDy=0;" parent="1" source="e5OpwMNv2B2QkPRnAw4D-39" target="e5OpwMNv2B2QkPRnAw4D-48" edge="1">
          <mxGeometry relative="1" as="geometry" />
        </mxCell>
        <mxCell id="e5OpwMNv2B2QkPRnAw4D-38" style="edgeStyle=orthogonalEdgeStyle;rounded=0;orthogonalLoop=1;jettySize=auto;html=1;exitX=1;exitY=0.5;exitDx=0;exitDy=0;entryX=0;entryY=0.5;entryDx=0;entryDy=0;" parent="1" source="e5OpwMNv2B2QkPRnAw4D-39" target="e5OpwMNv2B2QkPRnAw4D-45" edge="1">
          <mxGeometry relative="1" as="geometry" />
        </mxCell>
        <mxCell id="e5OpwMNv2B2QkPRnAw4D-39" value="UsuÃ¡rio acessa o financeiro" style="html=1;overflow=block;blockSpacing=1;whiteSpace=wrap;fontSize=16.7;spacing=0;strokeColor=#282c33;strokeOpacity=100;fillOpacity=100;rounded=1;absoluteArcSize=1;arcSize=9;fillColor=#ffffff;strokeWidth=1.5;lucidId=XpagvJWb4Kwn;" parent="1" vertex="1">
          <mxGeometry x="3154" y="-563" width="197" height="73" as="geometry" />
        </mxCell>
        <mxCell id="e5OpwMNv2B2QkPRnAw4D-40" value="UsuÃ¡rio realiza a avaliaÃ§Ã£o constitucional" style="html=1;overflow=block;blockSpacing=1;whiteSpace=wrap;fontSize=16.7;spacing=0;strokeColor=#282c33;strokeOpacity=100;fillOpacity=100;rounded=1;absoluteArcSize=1;arcSize=9;fillColor=#ffffff;strokeWidth=1.5;lucidId=QqagB81cPDgH;" parent="1" vertex="1">
          <mxGeometry x="3169" y="-1230" width="221" height="95" as="geometry" />
        </mxCell>
        <mxCell id="e5OpwMNv2B2QkPRnAw4D-41" value="UsuÃ¡rio emite relatÃ³rio em &quot;RelatÃ³rios&quot;" style="html=1;overflow=block;blockSpacing=1;whiteSpace=wrap;fontSize=16.7;spacing=0;strokeColor=#282c33;strokeOpacity=100;fillOpacity=100;rounded=1;absoluteArcSize=1;arcSize=9;fillColor=#ffffff;strokeWidth=1.5;lucidId=wragig0bG9mm;" parent="1" vertex="1">
          <mxGeometry x="757" y="-284" width="221" height="17" as="geometry" />
        </mxCell>
        <mxCell id="e5OpwMNv2B2QkPRnAw4D-42" value="UsuÃ¡rio gera boleto" style="html=1;overflow=block;blockSpacing=1;whiteSpace=wrap;fontSize=16.7;spacing=0;strokeColor=#282c33;strokeOpacity=100;fillOpacity=100;rounded=1;absoluteArcSize=1;arcSize=9;fillColor=#ffffff;strokeWidth=1.5;lucidId=aNagrbmweS1.;" parent="1" vertex="1">
          <mxGeometry x="4174" y="-1047" width="180" height="87" as="geometry" />
        </mxCell>
        <mxCell id="e5OpwMNv2B2QkPRnAw4D-43" value="UsuÃ¡rio gera cÃ³digo de barras" style="html=1;overflow=block;blockSpacing=1;whiteSpace=wrap;fontSize=16.7;spacing=0;strokeColor=#282c33;strokeOpacity=100;fillOpacity=100;rounded=1;absoluteArcSize=1;arcSize=9;fillColor=#ffffff;strokeWidth=1.5;lucidId=GNagwMuWGmXu;" parent="1" vertex="1">
          <mxGeometry x="4179" y="-858" width="203" height="48" as="geometry" />
        </mxCell>
        <mxCell id="e5OpwMNv2B2QkPRnAw4D-44" style="edgeStyle=orthogonalEdgeStyle;rounded=0;orthogonalLoop=1;jettySize=auto;html=1;exitX=1;exitY=0.5;exitDx=0;exitDy=0;entryX=0;entryY=0.5;entryDx=0;entryDy=0;" parent="1" source="e5OpwMNv2B2QkPRnAw4D-45" target="e5OpwMNv2B2QkPRnAw4D-49" edge="1">
          <mxGeometry relative="1" as="geometry" />
        </mxCell>
        <mxCell id="e5OpwMNv2B2QkPRnAw4D-45" value="UsuÃ¡rio visualiza mensalidades vencidas, a vencer e pagas" style="html=1;overflow=block;blockSpacing=1;whiteSpace=wrap;fontSize=16.7;spacing=0;strokeColor=#282c33;strokeOpacity=100;fillOpacity=100;rounded=1;absoluteArcSize=1;arcSize=9;fillColor=#ffffff;strokeWidth=1.5;lucidId=TOagGhvxD3LM;" parent="1" vertex="1">
          <mxGeometry x="3735" y="-589" width="180" height="99" as="geometry" />
        </mxCell>
        <mxCell id="e5OpwMNv2B2QkPRnAw4D-46" style="edgeStyle=orthogonalEdgeStyle;rounded=0;orthogonalLoop=1;jettySize=auto;html=1;exitX=1;exitY=0.5;exitDx=0;exitDy=0;entryX=0;entryY=0.5;entryDx=0;entryDy=0;" parent="1" source="e5OpwMNv2B2QkPRnAw4D-48" target="e5OpwMNv2B2QkPRnAw4D-42" edge="1">
          <mxGeometry relative="1" as="geometry" />
        </mxCell>
        <mxCell id="e5OpwMNv2B2QkPRnAw4D-47" style="edgeStyle=orthogonalEdgeStyle;rounded=0;orthogonalLoop=1;jettySize=auto;html=1;exitX=1;exitY=0.5;exitDx=0;exitDy=0;entryX=0;entryY=0.5;entryDx=0;entryDy=0;" parent="1" source="e5OpwMNv2B2QkPRnAw4D-48" target="e5OpwMNv2B2QkPRnAw4D-43" edge="1">
          <mxGeometry relative="1" as="geometry" />
        </mxCell>
        <mxCell id="e5OpwMNv2B2QkPRnAw4D-48" value="Gera mÃ©todo de pagamento" style="html=1;overflow=block;blockSpacing=1;whiteSpace=wrap;fontSize=16.7;spacing=0;strokeColor=#282c33;strokeOpacity=100;fillOpacity=100;rounded=1;absoluteArcSize=1;arcSize=9;fillColor=#ffffff;strokeWidth=1.5;lucidId=~Pag1-Fd03f6;" parent="1" vertex="1">
          <mxGeometry x="3739" y="-956" width="204" height="76" as="geometry" />
        </mxCell>
        <mxCell id="e5OpwMNv2B2QkPRnAw4D-49" value="UsuÃ¡rio vÃª detalhamento de cada mensalidade" style="html=1;overflow=block;blockSpacing=1;whiteSpace=wrap;fontSize=16.7;spacing=0;strokeColor=#282c33;strokeOpacity=100;fillOpacity=100;rounded=1;absoluteArcSize=1;arcSize=9;fillColor=#ffffff;strokeWidth=1.5;lucidId=LSagF-fGWhoS;" parent="1" vertex="1">
          <mxGeometry x="4150" y="-582" width="222" height="62" as="geometry" />
        </mxCell>
        <mxCell id="e5OpwMNv2B2QkPRnAw4D-50" value="UsuÃ¡rio vÃª vÃ­deo tutorial de como fazer rematrÃ­cula" style="ellipse;whiteSpace=wrap;html=1;" parent="1" vertex="1">
          <mxGeometry x="3498" y="60" width="180" height="100" as="geometry" />
        </mxCell>
        <mxCell id="e5OpwMNv2B2QkPRnAw4D-51" value="UsuÃ¡rio entra no link para fazer rematrÃ­cula" style="ellipse;whiteSpace=wrap;html=1;" parent="1" vertex="1">
          <mxGeometry x="3498" y="223" width="180" height="110" as="geometry" />
        </mxCell>
        <mxCell id="pFzV8TrJ0-phds0PxiRI-2" style="edgeStyle=orthogonalEdgeStyle;rounded=0;orthogonalLoop=1;jettySize=auto;html=1;exitX=1;exitY=0.3333333333333333;exitDx=0;exitDy=0;exitPerimeter=0;entryX=0;entryY=0.5;entryDx=0;entryDy=0;" edge="1" parent="1" source="e5OpwMNv2B2QkPRnAw4D-53" target="Pc4sicpr5zxXTXYjzxv1-1">
          <mxGeometry relative="1" as="geometry" />
        </mxCell>
        <mxCell id="e5OpwMNv2B2QkPRnAw4D-53" value="Aluno" style="shape=umlActor;verticalLabelPosition=bottom;verticalAlign=top;html=1;outlineConnect=0;" parent="1" vertex="1">
          <mxGeometry x="2422" y="-170" width="68" height="123" as="geometry" />
        </mxCell>
        <mxCell id="e5OpwMNv2B2QkPRnAw4D-54" style="edgeStyle=orthogonalEdgeStyle;rounded=0;orthogonalLoop=1;jettySize=auto;html=1;exitX=1;exitY=0.5;exitDx=0;exitDy=0;entryX=0;entryY=0.5;entryDx=0;entryDy=0;" parent="1" source="e5OpwMNv2B2QkPRnAw4D-57" target="e5OpwMNv2B2QkPRnAw4D-58" edge="1">
          <mxGeometry relative="1" as="geometry" />
        </mxCell>
        <mxCell id="e5OpwMNv2B2QkPRnAw4D-55" style="edgeStyle=orthogonalEdgeStyle;rounded=0;orthogonalLoop=1;jettySize=auto;html=1;exitX=1;exitY=0.5;exitDx=0;exitDy=0;entryX=0;entryY=0.5;entryDx=0;entryDy=0;" parent="1" source="e5OpwMNv2B2QkPRnAw4D-57" target="e5OpwMNv2B2QkPRnAw4D-59" edge="1">
          <mxGeometry relative="1" as="geometry" />
        </mxCell>
        <mxCell id="e5OpwMNv2B2QkPRnAw4D-56" style="edgeStyle=orthogonalEdgeStyle;rounded=0;orthogonalLoop=1;jettySize=auto;html=1;exitX=1;exitY=0.5;exitDx=0;exitDy=0;entryX=0;entryY=0.5;entryDx=0;entryDy=0;" parent="1" source="e5OpwMNv2B2QkPRnAw4D-57" target="e5OpwMNv2B2QkPRnAw4D-60" edge="1">
          <mxGeometry relative="1" as="geometry" />
        </mxCell>
        <mxCell id="e5OpwMNv2B2QkPRnAw4D-57" value="UsuÃ¡rio visualiza o &quot;CalendÃ¡rio&quot;&amp;nbsp;" style="ellipse;whiteSpace=wrap;html=1;" parent="1" vertex="1">
          <mxGeometry x="3100" y="479" width="120" height="80" as="geometry" />
        </mxCell>
        <mxCell id="e5OpwMNv2B2QkPRnAw4D-58" value="UsuÃ¡rio filtra disciplinas" style="ellipse;whiteSpace=wrap;html=1;" parent="1" vertex="1">
          <mxGeometry x="3338" y="479" width="142" height="80" as="geometry" />
        </mxCell>
        <mxCell id="e5OpwMNv2B2QkPRnAw4D-59" value="UsuÃ¡rio seleciona a data" style="ellipse;whiteSpace=wrap;html=1;" parent="1" vertex="1">
          <mxGeometry x="3348" y="600" width="120" height="80" as="geometry" />
        </mxCell>
        <mxCell id="e5OpwMNv2B2QkPRnAw4D-60" value="UsuÃ¡rio escolhe forma de visualizaÃ§Ã£o (dia, mÃªs, semana, agenda)" style="ellipse;whiteSpace=wrap;html=1;" parent="1" vertex="1">
          <mxGeometry x="3309" y="350" width="200" height="90" as="geometry" />
        </mxCell>
        <mxCell id="e5OpwMNv2B2QkPRnAw4D-61" value="UsuÃ¡rio vÃª detalhamento da disciplina" style="html=1;overflow=block;blockSpacing=1;whiteSpace=wrap;fontSize=16.7;spacing=0;strokeColor=#282c33;strokeOpacity=100;fillOpacity=100;rounded=1;absoluteArcSize=1;arcSize=9;fillColor=#ffffff;strokeWidth=1.5;lucidId=V.agT9hImhcR;" parent="1" vertex="1">
          <mxGeometry x="4341" y="-128" width="221" height="56" as="geometry" />
        </mxCell>
        <mxCell id="e5OpwMNv2B2QkPRnAw4D-62" value="" style="html=1;overflow=block;blockSpacing=1;whiteSpace=wrap;ellipse;container=1;pointerEvents=0;collapsible=0;recursiveResize=0;fontSize=13;spacing=0;strokeColor=#unset;fillOpacity=0;rounded=1;absoluteArcSize=1;arcSize=9;fillColor=#000000;strokeWidth=NaN;lucidId=V_agjKaJFIL0;" parent="1" vertex="1">
          <mxGeometry x="4326" y="-360" width="285" height="122" as="geometry" />
        </mxCell>
        <mxCell id="e5OpwMNv2B2QkPRnAw4D-63" value="UsuÃ¡rio filtra disciplinas" style="html=1;overflow=block;blockSpacing=1;whiteSpace=wrap;fontSize=16.7;spacing=0;strokeColor=#282c33;strokeOpacity=100;fillOpacity=100;rounded=1;absoluteArcSize=1;arcSize=9;fillColor=#ffffff;strokeWidth=1.5;lucidId=X_agms8F3l3b;" parent="e5OpwMNv2B2QkPRnAw4D-62" vertex="1">
          <mxGeometry x="35.5" y="30.5" width="214" height="85" as="geometry" />
        </mxCell>
        <mxCell id="e5OpwMNv2B2QkPRnAw4D-64" value="UsuÃ¡rio visualiza suas notas em cada disciplina" style="html=1;overflow=block;blockSpacing=1;whiteSpace=wrap;fontSize=16.7;spacing=0;strokeColor=#282c33;strokeOpacity=100;fillOpacity=100;rounded=1;absoluteArcSize=1;arcSize=9;fillColor=#ffffff;strokeWidth=1.5;lucidId=TfagR_.VnuLy;" parent="1" vertex="1">
          <mxGeometry x="3753" y="-332" width="275" height="90" as="geometry" />
        </mxCell>
        <mxCell id="e5OpwMNv2B2QkPRnAw4D-65" value="" style="html=1;overflow=block;blockSpacing=1;whiteSpace=wrap;ellipse;container=1;pointerEvents=0;collapsible=0;recursiveResize=0;fontSize=13;spacing=0;strokeColor=#unset;fillOpacity=0;rounded=1;absoluteArcSize=1;arcSize=9;fillColor=#000000;strokeWidth=NaN;lucidId=YeagIgFy~XO2;" parent="1" vertex="1">
          <mxGeometry x="3714" y="-183" width="352" height="153" as="geometry" />
        </mxCell>
        <mxCell id="e5OpwMNv2B2QkPRnAw4D-66" value="UsuÃ¡rio visualiza o nÃºmero de faltas em cada disciplina" style="html=1;overflow=block;blockSpacing=1;whiteSpace=wrap;fontSize=16.7;spacing=0;strokeColor=#282c33;strokeOpacity=100;fillOpacity=100;rounded=1;absoluteArcSize=1;arcSize=9;fillColor=#ffffff;strokeWidth=1.5;lucidId=Zeag9wcReGp1;" parent="e5OpwMNv2B2QkPRnAw4D-65" vertex="1">
          <mxGeometry x="28" y="46" width="264" height="74" as="geometry" />
        </mxCell>
        <mxCell id="e5OpwMNv2B2QkPRnAw4D-67" value="UsuÃ¡rio entra na &quot;Central do Aluno&quot;" style="html=1;overflow=block;blockSpacing=1;whiteSpace=wrap;fontSize=16.7;spacing=0;strokeColor=#282c33;strokeOpacity=100;fillOpacity=100;rounded=1;absoluteArcSize=1;arcSize=9;fillColor=#ffffff;strokeWidth=1.5;lucidId=iabgqO2KLxVr;" parent="1" vertex="1">
          <mxGeometry x="3290" y="-195" width="225" height="73" as="geometry" />
        </mxCell>
        <mxCell id="e5OpwMNv2B2QkPRnAw4D-68" style="edgeStyle=orthogonalEdgeStyle;rounded=0;orthogonalLoop=1;jettySize=auto;html=1;exitX=1;exitY=0.5;exitDx=0;exitDy=0;entryX=0;entryY=0.5;entryDx=0;entryDy=0;" parent="1" source="e5OpwMNv2B2QkPRnAw4D-66" target="e5OpwMNv2B2QkPRnAw4D-61" edge="1">
          <mxGeometry relative="1" as="geometry" />
        </mxCell>
        <mxCell id="e5OpwMNv2B2QkPRnAw4D-69" style="edgeStyle=orthogonalEdgeStyle;rounded=0;orthogonalLoop=1;jettySize=auto;html=1;exitX=1;exitY=0.5;exitDx=0;exitDy=0;entryX=0;entryY=0.5;entryDx=0;entryDy=0;" parent="1" source="e5OpwMNv2B2QkPRnAw4D-64" target="e5OpwMNv2B2QkPRnAw4D-61" edge="1">
          <mxGeometry relative="1" as="geometry" />
        </mxCell>
        <mxCell id="e5OpwMNv2B2QkPRnAw4D-70" style="edgeStyle=orthogonalEdgeStyle;rounded=0;orthogonalLoop=1;jettySize=auto;html=1;exitX=1;exitY=0.5;exitDx=0;exitDy=0;entryX=0;entryY=0.5;entryDx=0;entryDy=0;" parent="1" source="e5OpwMNv2B2QkPRnAw4D-64" target="e5OpwMNv2B2QkPRnAw4D-63" edge="1">
          <mxGeometry relative="1" as="geometry" />
        </mxCell>
        <mxCell id="e5OpwMNv2B2QkPRnAw4D-71" style="edgeStyle=orthogonalEdgeStyle;rounded=0;orthogonalLoop=1;jettySize=auto;html=1;exitX=1;exitY=0.5;exitDx=0;exitDy=0;entryX=0;entryY=0.5;entryDx=0;entryDy=0;" parent="1" source="e5OpwMNv2B2QkPRnAw4D-66" target="e5OpwMNv2B2QkPRnAw4D-63" edge="1">
          <mxGeometry relative="1" as="geometry" />
        </mxCell>
        <mxCell id="e5OpwMNv2B2QkPRnAw4D-72" style="edgeStyle=orthogonalEdgeStyle;rounded=0;orthogonalLoop=1;jettySize=auto;html=1;exitX=1;exitY=0.5;exitDx=0;exitDy=0;entryX=0;entryY=0.5;entryDx=0;entryDy=0;" parent="1" source="e5OpwMNv2B2QkPRnAw4D-67" target="e5OpwMNv2B2QkPRnAw4D-64" edge="1">
          <mxGeometry relative="1" as="geometry" />
        </mxCell>
        <mxCell id="e5OpwMNv2B2QkPRnAw4D-73" style="edgeStyle=orthogonalEdgeStyle;rounded=0;orthogonalLoop=1;jettySize=auto;html=1;exitX=1;exitY=0.5;exitDx=0;exitDy=0;entryX=0;entryY=0.5;entryDx=0;entryDy=0;" parent="1" source="e5OpwMNv2B2QkPRnAw4D-67" target="e5OpwMNv2B2QkPRnAw4D-66" edge="1">
          <mxGeometry relative="1" as="geometry" />
        </mxCell>
        <mxCell id="e5OpwMNv2B2QkPRnAw4D-74" style="edgeStyle=orthogonalEdgeStyle;rounded=0;orthogonalLoop=1;jettySize=auto;html=1;exitX=1;exitY=0.5;exitDx=0;exitDy=0;entryX=0;entryY=0.5;entryDx=0;entryDy=0;" parent="1" source="e5OpwMNv2B2QkPRnAw4D-76" target="e5OpwMNv2B2QkPRnAw4D-77" edge="1">
          <mxGeometry relative="1" as="geometry" />
        </mxCell>
        <mxCell id="e5OpwMNv2B2QkPRnAw4D-75" style="edgeStyle=orthogonalEdgeStyle;rounded=0;orthogonalLoop=1;jettySize=auto;html=1;exitX=1;exitY=0.5;exitDx=0;exitDy=0;entryX=0;entryY=0.5;entryDx=0;entryDy=0;" parent="1" source="e5OpwMNv2B2QkPRnAw4D-76" target="e5OpwMNv2B2QkPRnAw4D-78" edge="1">
          <mxGeometry relative="1" as="geometry" />
        </mxCell>
        <mxCell id="e5OpwMNv2B2QkPRnAw4D-76" value="&lt;font style=&quot;font-size: 17px;&quot;&gt;UsuÃ¡rio acessa &quot;Grade&amp;nbsp; Curricular&quot;&lt;/font&gt;" style="ellipse;whiteSpace=wrap;html=1;" parent="1" vertex="1">
          <mxGeometry x="3131" y="920" width="220" height="110" as="geometry" />
        </mxCell>
        <mxCell id="e5OpwMNv2B2QkPRnAw4D-77" value="UsuÃ¡rio visualiza disciplinas de cada perÃ­odo em seu curso" style="ellipse;whiteSpace=wrap;html=1;" parent="1" vertex="1">
          <mxGeometry x="3451" y="850" width="220" height="120" as="geometry" />
        </mxCell>
        <mxCell id="e5OpwMNv2B2QkPRnAw4D-78" value="UsuÃ¡rio visualiza detalhamento de cada disciplina" style="ellipse;whiteSpace=wrap;html=1;" parent="1" vertex="1">
          <mxGeometry x="3451" y="1020" width="180" height="100" as="geometry" />
        </mxCell>
        <mxCell id="pFzV8TrJ0-phds0PxiRI-6" style="rounded=0;orthogonalLoop=1;jettySize=auto;html=1;exitX=0.5;exitY=0;exitDx=0;exitDy=0;entryX=0.5;entryY=1;entryDx=0;entryDy=0;" edge="1" parent="1" source="Pc4sicpr5zxXTXYjzxv1-1" target="pFzV8TrJ0-phds0PxiRI-3">
          <mxGeometry relative="1" as="geometry" />
        </mxCell>
        <mxCell id="pFzV8TrJ0-phds0PxiRI-8" value="&amp;lt;&amp;lt;include&amp;gt;&amp;gt;" style="edgeLabel;html=1;align=center;verticalAlign=middle;resizable=0;points=[];" vertex="1" connectable="0" parent="pFzV8TrJ0-phds0PxiRI-6">
          <mxGeometry x="0.0968" y="-1" relative="1" as="geometry">
            <mxPoint as="offset" />
          </mxGeometry>
        </mxCell>
        <mxCell id="Pc4sicpr5zxXTXYjzxv1-1" value="UsuÃ¡rio faz login" style="ellipse;whiteSpace=wrap;html=1;" parent="1" vertex="1">
          <mxGeometry x="2620" y="-180" width="160" height="100" as="geometry" />
        </mxCell>
        <mxCell id="pFzV8TrJ0-phds0PxiRI-3" value="Verifica usuÃ¡rio e senha" style="ellipse;whiteSpace=wrap;html=1;" vertex="1" parent="1">
          <mxGeometry x="2620" y="-360" width="160" height="100" as="geometry" />
        </mxCell>
      </root>
    </mxGraphModel>
  </diagram>
</mxfile>
